<?xml version="1.0" encoding="UTF-8"?>
<svg id="Capa_1" xmlns="http://www.w3.org/2000/svg" version="1.1" viewBox="0 0 96 96">
  <!-- Generator: Adobe Illustrator 29.6.1, SVG Export Plug-In . SVG Version: 2.1.1 Build 9)  -->
  <defs>
    <style>
      .st0 {
        fill: #6e42f4;
      }
    </style>
  </defs>
  <path class="st0" d="M48,0c3.31,0,6,2.69,6,6v31.61l27.37-15.8c2.86-1.68,6.53-.72,8.21,2.14s.72,6.53-2.14,8.21c-.02.01-.05.03-.07.04l-27.37,15.8,27.37,15.8c2.88,1.64,3.89,5.3,2.25,8.18-1.64,2.88-5.3,3.89-8.18,2.25-.02-.01-.05-.03-.07-.04l-27.37-15.8v31.61c0,3.31-2.69,6-6,6s-6-2.69-6-6v-31.61l-27.37,15.8c-2.86,1.68-6.53.72-8.21-2.14-1.68-2.86-.72-6.53,2.14-8.21.02-.01.05-.03.07-.04l27.37-15.8-27.37-15.8c-2.86-1.68-3.82-5.35-2.14-8.21,1.66-2.83,5.29-3.8,8.14-2.18l27.37,15.8V6c0-3.31,2.69-6,6-6"/>
</svg>